<svg width="790" height="272" viewBox="0 0 790 272" fill="none" xmlns="http://www.w3.org/2000/svg">
<path d="M103.092 9.79999H155.424V13.524H144.644V143.276H155.424V147H95.6436V143.276H106.424V20.776H105.64L76.2396 147H51.7396L17.2436 20.188H16.4596V143.276H27.2396V147H0.583594V143.276H11.3636V13.524H0.583594V9.79999H53.5036L79.5716 110.74L103.092 9.79999ZM274.999 147H230.311L228.155 132.692C226.064 137.919 222.928 141.969 218.747 144.844C214.696 147.588 208.62 148.96 200.519 148.96C180.266 148.96 170.139 138.049 170.139 116.228V57.232H159.163V53.704H206.595V120.932C206.595 128.772 207.118 133.933 208.163 136.416C209.339 138.899 211.56 140.14 214.827 140.14C218.224 140.14 221.23 138.115 223.843 134.064C226.456 130.013 227.763 124.395 227.763 117.208V57.232H218.747V53.704H264.219V143.472H274.999V147ZM344.475 59.192C339.64 59.192 335.393 62.328 331.735 68.6C328.076 74.872 326.247 82.32 326.247 90.944V143.472H340.163V147H279.011V143.472H289.791V57.232H279.011V53.704H326.247V72.52C327.945 65.856 331.212 60.76 336.047 57.232C340.881 53.5733 346.369 51.744 352.511 51.744C358.652 51.744 363.617 53.508 367.407 57.036C371.327 60.4333 373.287 65.3333 373.287 71.736C373.287 78.008 371.849 82.8427 368.975 86.24C366.1 89.6373 361.657 91.336 355.647 91.336C349.767 91.336 345.389 89.376 342.515 85.456C339.771 81.536 339.444 76.1133 341.535 69.188H348.591C351.857 62.524 350.485 59.192 344.475 59.192ZM420.223 100.94H425.907V85.848C425.907 73.4347 425.188 65.1373 423.751 60.956C422.444 56.644 419.831 54.488 415.911 54.488C413.559 54.488 411.403 55.1413 409.443 56.448C407.613 57.624 406.699 59.3227 406.699 61.544C406.699 63.6347 407.091 65.7907 407.875 68.012H412.775C413.82 70.756 414.343 74.088 414.343 78.008C414.343 81.7973 412.709 85.1293 409.443 88.004C406.176 90.748 402.06 92.12 397.095 92.12C385.857 92.12 380.239 86.6973 380.239 75.852C380.239 59.78 393.893 51.744 421.203 51.744C436.752 51.744 447.467 54.4227 453.347 59.78C459.357 65.0067 462.363 74.676 462.363 88.788V128.576C462.363 135.371 464.257 138.768 468.047 138.768C472.489 138.768 475.103 132.039 475.887 118.58L478.827 118.776C478.304 130.275 476.148 138.18 472.359 142.492C468.569 146.804 462.363 148.96 453.739 148.96C438.059 148.96 429.043 144.125 426.691 134.456C424.992 139.421 422.444 143.08 419.047 145.432C415.649 147.784 410.684 148.96 404.151 148.96C384.812 148.96 375.143 141.055 375.143 125.244C375.143 115.967 378.801 109.629 386.119 106.232C393.567 102.704 404.935 100.94 420.223 100.94ZM412.383 125.048C412.383 131.843 412.709 136.22 413.363 138.18C414.147 140.14 415.519 141.12 417.479 141.12C419.569 141.12 421.464 139.487 423.163 136.22C424.992 132.823 425.907 128.184 425.907 122.304V104.076H424.535C416.433 104.076 412.383 110.021 412.383 121.912V125.048ZM479.969 -1.16825e-05H527.989V143.472H538.965V147H480.753V143.472H491.533V3.52799H479.969V-1.16825e-05ZM617.775 106.428C617.775 120.148 618.494 129.295 619.931 133.868C621.369 138.311 623.982 140.532 627.771 140.532C631.691 140.532 635.023 138.833 637.767 135.436C640.642 132.039 642.079 127.008 642.079 120.344V77.616C642.079 71.9973 640.969 67.228 638.747 63.308C636.526 59.388 633.259 57.428 628.947 57.428C624.635 57.428 621.695 60.3027 620.127 66.052C618.559 71.8013 617.775 81.8627 617.775 96.236V106.428ZM644.627 147L642.471 133.28C638.029 143.733 629.013 148.96 615.423 148.96C604.186 148.96 595.431 144.909 589.159 136.808C583.018 128.707 579.947 116.62 579.947 100.548C579.947 68.012 592.883 51.744 618.755 51.744C630.254 51.744 637.833 54.9453 641.491 61.348V3.52799H629.535V-1.16825e-05H678.535V143.472H688.139V147H644.627ZM744.762 148.96C727.906 148.96 715.231 144.648 706.738 136.024C698.375 127.269 694.194 115.183 694.194 99.764C694.194 84.2147 698.898 72.324 708.306 64.092C717.845 55.86 729.931 51.744 744.566 51.744C774.227 51.744 788.47 66.64 787.294 96.432H732.022V104.076C732.022 116.881 733.655 126.551 736.922 133.084C740.189 139.617 745.873 142.884 753.974 142.884C769.131 142.884 779.062 134.783 783.766 118.58L787.294 119.168C784.811 128.576 780.303 135.893 773.77 141.12C767.367 146.347 757.698 148.96 744.762 148.96ZM732.218 92.512H752.406V82.908C752.406 72.324 751.753 65.1373 750.446 61.348C749.27 57.428 746.787 55.468 742.998 55.468C739.339 55.468 736.595 57.5587 734.766 61.74C733.067 65.7907 732.218 72.8467 732.218 82.908V92.512ZM199.506 266.276L185.198 223.94H146.39L131.298 266.276H145.998V270H116.01V266.276H125.222L175.202 131.624H191.274L240.666 266.276H249.682V270H185.59V266.276H199.506ZM166.578 168.276L148.154 219.628H183.63L166.578 168.276ZM230.252 180.232V176.704H288.856V180.232H276.508L300.028 245.304L321.196 180.232H308.064V176.704H334.524V180.232H325.9L296.892 270H274.548L238.288 180.232H230.252ZM365.34 163.18C358.415 163.18 353.45 161.416 350.444 157.888C347.57 154.36 346.132 149.983 346.132 144.756C346.132 139.529 347.7 135.217 350.836 131.82C354.103 128.423 359.003 126.724 365.536 126.724C372.07 126.724 377.035 128.292 380.432 131.428C383.83 134.433 385.528 138.811 385.528 144.56C385.528 150.179 383.895 154.687 380.628 158.084C377.362 161.481 372.266 163.18 365.34 163.18ZM335.744 176.704H383.764V266.472H394.74V270H336.528V266.472H347.308V180.232H335.744V176.704ZM403.243 271.96V236.876H405.595C408.993 248.244 413.566 256.215 419.315 260.788C425.065 265.361 432.251 267.648 440.875 267.648C454.203 267.648 460.867 263.401 460.867 254.908C460.867 251.249 459.234 248.505 455.967 246.676C450.871 243.801 444.338 241.58 436.367 240.012C427.482 237.66 420.034 234.524 414.023 230.604C406.837 225.9 403.243 218.452 403.243 208.26C403.243 198.068 406.379 189.967 412.651 183.956C418.923 177.815 427.286 174.744 437.739 174.744C444.142 174.744 450.741 176.247 457.535 179.252C460.018 180.297 461.913 180.82 463.219 180.82C464.526 180.82 465.637 180.363 466.551 179.448C467.466 178.533 468.577 176.835 469.883 174.352H472.039V204.34H469.687C463.023 187.353 452.701 178.86 438.719 178.86C432.578 178.86 428.005 179.971 424.999 182.192C421.994 184.283 420.491 186.961 420.491 190.228C420.491 192.188 420.949 193.756 421.863 194.932C422.778 195.977 423.497 196.761 424.019 197.284C424.542 197.807 425.391 198.395 426.567 199.048C427.743 199.571 428.723 200.028 429.507 200.42C430.291 200.681 431.467 201.073 433.035 201.596C434.734 202.119 435.975 202.445 436.759 202.576C445.645 204.797 452.047 206.757 455.967 208.456C459.887 210.024 463.611 211.984 467.139 214.336C474.326 219.301 477.919 227.337 477.919 238.444C477.919 249.42 474.653 257.783 468.119 263.532C461.586 269.151 452.635 271.96 441.267 271.96C433.166 271.96 425.326 270.065 417.747 266.276C416.179 265.231 414.938 264.708 414.023 264.708C411.149 264.708 408.339 267.125 405.595 271.96H403.243ZM547.028 231.388V214.728C547.028 202.053 546.309 192.841 544.872 187.092C543.565 181.212 540.429 178.272 535.464 178.272C532.589 178.272 530.237 179.121 528.408 180.82C526.709 182.388 525.468 185.067 524.684 188.856C523.508 194.736 522.92 203.687 522.92 215.708V230.996C522.92 245.239 523.312 253.797 524.096 256.672C525.01 259.547 525.925 261.899 526.84 263.728C528.277 266.864 531.086 268.432 535.268 268.432C540.364 268.432 543.696 265.492 545.264 259.612C546.44 255.431 547.028 246.023 547.028 231.388ZM534.876 271.96C518.542 271.96 506.194 267.779 497.832 259.416C489.469 251.053 485.288 239.097 485.288 223.548C485.288 207.868 489.73 195.847 498.616 187.484C507.632 178.991 520.241 174.744 536.444 174.744C552.646 174.744 564.733 178.664 572.704 186.504C580.674 194.213 584.66 206.039 584.66 221.98C584.66 255.3 568.065 271.96 534.876 271.96ZM594.65 271.96V236.876H597.002C600.399 248.244 604.972 256.215 610.722 260.788C616.471 265.361 623.658 267.648 632.282 267.648C645.61 267.648 652.274 263.401 652.274 254.908C652.274 251.249 650.64 248.505 647.374 246.676C642.278 243.801 635.744 241.58 627.774 240.012C618.888 237.66 611.44 234.524 605.43 230.604C598.243 225.9 594.65 218.452 594.65 208.26C594.65 198.068 597.786 189.967 604.058 183.956C610.33 177.815 618.692 174.744 629.146 174.744C635.548 174.744 642.147 176.247 648.942 179.252C651.424 180.297 653.319 180.82 654.626 180.82C655.932 180.82 657.043 180.363 657.958 179.448C658.872 178.533 659.983 176.835 661.29 174.352H663.446V204.34H661.094C654.43 187.353 644.107 178.86 630.126 178.86C623.984 178.86 619.411 179.971 616.406 182.192C613.4 184.283 611.898 186.961 611.898 190.228C611.898 192.188 612.355 193.756 613.27 194.932C614.184 195.977 614.903 196.761 615.426 197.284C615.948 197.807 616.798 198.395 617.974 199.048C619.15 199.571 620.13 200.028 620.914 200.42C621.698 200.681 622.874 201.073 624.442 201.596C626.14 202.119 627.382 202.445 628.166 202.576C637.051 204.797 643.454 206.757 647.374 208.456C651.294 210.024 655.018 211.984 658.546 214.336C665.732 219.301 669.326 227.337 669.326 238.444C669.326 249.42 666.059 257.783 659.526 263.532C652.992 269.151 644.042 271.96 632.674 271.96C624.572 271.96 616.732 270.065 609.154 266.276C607.586 265.231 606.344 264.708 605.43 264.708C602.555 264.708 599.746 267.125 597.002 271.96H594.65Z" fill="#18726E"/>
</svg>
