<svg width="558" height="272" viewBox="0 0 558 272" fill="none" stroke="currentColor" stroke-width="2" xmlns="http://www.w3.org/2000/svg">
<path d="M150.723 111.524L184.827 13.524H169.539V9.79999H199.527V13.524H190.315L143.079 148.96H126.615L76.6354 13.524H67.6194V9.79999H131.711V13.524H117.795L150.723 111.524ZM228.52 40.18C221.595 40.18 216.629 38.416 213.624 34.888C210.749 31.36 209.312 26.9827 209.312 21.756C209.312 16.5293 210.88 12.2173 214.016 8.81999C217.283 5.42266 222.183 3.724 228.716 3.724C235.249 3.724 240.215 5.292 243.612 8.428C247.009 11.4333 248.708 15.8107 248.708 21.56C248.708 27.1787 247.075 31.6867 243.808 35.084C240.541 38.4813 235.445 40.18 228.52 40.18ZM198.924 53.704H246.944V143.472H257.92V147H199.708V143.472H210.488V57.232H198.924V53.704ZM261.131 -1.16825e-05H309.151V143.472H320.127V147H261.915V143.472H272.695V3.52799H261.131V-1.16825e-05ZM323.147 -1.16825e-05H371.167V143.472H382.143V147H323.931V143.472H334.711V3.52799H323.147V-1.16825e-05ZM432.986 100.94H438.67V85.848C438.67 73.4347 437.952 65.1373 436.514 60.956C435.208 56.644 432.594 54.488 428.674 54.488C426.322 54.488 424.166 55.1413 422.206 56.448C420.377 57.624 419.462 59.3227 419.462 61.544C419.462 63.6347 419.854 65.7907 420.638 68.012H425.538C426.584 70.756 427.106 74.088 427.106 78.008C427.106 81.7973 425.473 85.1293 422.206 88.004C418.94 90.748 414.824 92.12 409.858 92.12C398.621 92.12 393.002 86.6973 393.002 75.852C393.002 59.78 406.657 51.744 433.966 51.744C449.516 51.744 460.23 54.4227 466.11 59.78C472.121 65.0067 475.126 74.676 475.126 88.788V128.576C475.126 135.371 477.021 138.768 480.81 138.768C485.253 138.768 487.866 132.039 488.65 118.58L491.59 118.776C491.068 130.275 488.912 138.18 485.122 142.492C481.333 146.804 475.126 148.96 466.502 148.96C450.822 148.96 441.806 144.125 439.454 134.456C437.756 139.421 435.208 143.08 431.81 145.432C428.413 147.784 423.448 148.96 416.914 148.96C397.576 148.96 387.906 141.055 387.906 125.244C387.906 115.967 391.565 109.629 398.882 106.232C406.33 102.704 417.698 100.94 432.986 100.94ZM425.146 125.048C425.146 131.843 425.473 136.22 426.126 138.18C426.91 140.14 428.282 141.12 430.242 141.12C432.333 141.12 434.228 139.487 435.926 136.22C437.756 132.823 438.67 128.184 438.67 122.304V104.076H437.298C429.197 104.076 425.146 110.021 425.146 121.912V125.048ZM0.955625 132.8H58.5796C78.3103 132.8 93.0103 135.675 102.68 141.424C112.349 147.043 117.184 157.169 117.184 171.804C117.184 188.007 111.304 199.179 99.5436 205.32C88.5676 210.939 73.2143 213.748 53.4836 213.748H51.9156V266.276H76.4156V270H0.955625V266.276H13.6956V136.524H0.955625V132.8ZM51.9156 136.524V210.024H56.0316C63.8716 210.024 69.2943 207.345 72.2996 201.988C75.305 196.631 76.8076 187.941 76.8076 175.92V166.512C76.8076 155.405 75.3703 147.631 72.4956 143.188C69.7516 138.745 64.6556 136.524 57.2076 136.524H51.9156ZM153.01 163.18C146.085 163.18 141.12 161.416 138.114 157.888C135.24 154.36 133.802 149.983 133.802 144.756C133.802 139.529 135.37 135.217 138.506 131.82C141.773 128.423 146.673 126.724 153.206 126.724C159.74 126.724 164.705 128.292 168.102 131.428C171.5 134.433 173.198 138.811 173.198 144.56C173.198 150.179 171.565 154.687 168.298 158.084C165.032 161.481 159.936 163.18 153.01 163.18ZM123.414 176.704H171.434V266.472H182.41V270H124.198V266.472H134.978V180.232H123.414V176.704ZM190.913 271.96V236.876H193.265C196.663 248.244 201.236 256.215 206.985 260.788C212.735 265.361 219.921 267.648 228.545 267.648C241.873 267.648 248.537 263.401 248.537 254.908C248.537 251.249 246.904 248.505 243.637 246.676C238.541 243.801 232.008 241.58 224.037 240.012C215.152 237.66 207.704 234.524 201.693 230.604C194.507 225.9 190.913 218.452 190.913 208.26C190.913 198.068 194.049 189.967 200.321 183.956C206.593 177.815 214.956 174.744 225.409 174.744C231.812 174.744 238.411 176.247 245.205 179.252C247.688 180.297 249.583 180.82 250.889 180.82C252.196 180.82 253.307 180.363 254.221 179.448C255.136 178.533 256.247 176.835 257.553 174.352H259.709V204.34H257.357C250.693 187.353 240.371 178.86 226.389 178.86C220.248 178.86 215.675 179.971 212.669 182.192C209.664 184.283 208.161 186.961 208.161 190.228C208.161 192.188 208.619 193.756 209.533 194.932C210.448 195.977 211.167 196.761 211.689 197.284C212.212 197.807 213.061 198.395 214.237 199.048C215.413 199.571 216.393 200.028 217.177 200.42C217.961 200.681 219.137 201.073 220.705 201.596C222.404 202.119 223.645 202.445 224.429 202.576C233.315 204.797 239.717 206.757 243.637 208.456C247.557 210.024 251.281 211.984 254.809 214.336C261.996 219.301 265.589 227.337 265.589 238.444C265.589 249.42 262.323 257.783 255.789 263.532C249.256 269.151 240.305 271.96 228.937 271.96C220.836 271.96 212.996 270.065 205.417 266.276C203.849 265.231 202.608 264.708 201.693 264.708C198.819 264.708 196.009 267.125 193.265 271.96H190.913ZM318.43 223.94H324.114V208.848C324.114 196.435 323.395 188.137 321.958 183.956C320.651 179.644 318.038 177.488 314.118 177.488C311.766 177.488 309.61 178.141 307.65 179.448C305.82 180.624 304.906 182.323 304.906 184.544C304.906 186.635 305.298 188.791 306.082 191.012H310.982C312.027 193.756 312.55 197.088 312.55 201.008C312.55 204.797 310.916 208.129 307.65 211.004C304.383 213.748 300.267 215.12 295.302 215.12C284.064 215.12 278.446 209.697 278.446 198.852C278.446 182.78 292.1 174.744 319.41 174.744C334.959 174.744 345.674 177.423 351.554 182.78C357.564 188.007 360.57 197.676 360.57 211.788V251.576C360.57 258.371 362.464 261.768 366.254 261.768C370.696 261.768 373.31 255.039 374.094 241.58L377.034 241.776C376.511 253.275 374.355 261.18 370.566 265.492C366.776 269.804 360.57 271.96 351.946 271.96C336.266 271.96 327.25 267.125 324.898 257.456C323.199 262.421 320.651 266.08 317.254 268.432C313.856 270.784 308.891 271.96 302.358 271.96C283.019 271.96 273.35 264.055 273.35 248.244C273.35 238.967 277.008 232.629 284.326 229.232C291.774 225.704 303.142 223.94 318.43 223.94ZM310.59 248.048C310.59 254.843 310.916 259.22 311.57 261.18C312.354 263.14 313.726 264.12 315.686 264.12C317.776 264.12 319.671 262.487 321.37 259.22C323.199 255.823 324.114 251.184 324.114 245.304V227.076H322.742C314.64 227.076 310.59 233.021 310.59 244.912V248.048ZM379.352 176.704H426.588V194.736C428.679 188.725 431.88 183.891 436.192 180.232C440.504 176.573 447.037 174.744 455.792 174.744C476.045 174.744 486.172 185.655 486.172 207.476V266.472H497.148V270H441.68V266.472H449.716V202.772C449.716 194.932 449.193 189.901 448.148 187.68C447.103 185.328 445.208 184.152 442.464 184.152C438.283 184.152 434.559 186.896 431.292 192.384C428.156 197.872 426.588 204.536 426.588 212.376V266.472H435.016V270H379.352V266.472H390.132V180.232H379.352V176.704ZM528.549 163.18C521.624 163.18 516.659 161.416 513.653 157.888C510.779 154.36 509.341 149.983 509.341 144.756C509.341 139.529 510.909 135.217 514.045 131.82C517.312 128.423 522.212 126.724 528.745 126.724C535.279 126.724 540.244 128.292 543.641 131.428C547.039 134.433 548.737 138.811 548.737 144.56C548.737 150.179 547.104 154.687 543.837 158.084C540.571 161.481 535.475 163.18 528.549 163.18ZM498.953 176.704H546.973V266.472H557.949V270H499.737V266.472H510.517V180.232H498.953V176.704Z"/>
</svg>
