<svg width="1210" height="272" viewBox="0 0 1210 272" fill="none" xmlns="http://www.w3.org/2000/svg">
<path d="M71.1012 11.564C50.8478 11.564 40.7212 31.0987 40.7212 70.168V85.652C40.7212 104.207 43.3998 118.776 48.7572 129.36C54.1145 139.813 62.0198 145.04 72.4732 145.04C86.8465 145.04 100.044 131.059 112.065 103.096H115.593L114.221 146.804H112.065C111.281 145.367 110.563 144.387 109.909 143.864C109.256 143.211 108.276 142.884 106.969 142.884C105.793 142.884 101.089 143.929 92.8572 146.02C84.6252 147.98 76.2625 148.96 67.7692 148.96C46.4705 148.96 29.9412 143.211 18.1812 131.712C6.55184 120.213 0.737172 102.965 0.737172 79.968C0.737172 56.84 6.81317 39.004 18.9652 26.46C31.2478 13.916 47.7118 7.644 68.3572 7.644C76.3278 7.644 84.1025 8.68933 91.6812 10.78C99.3905 12.74 103.899 13.72 105.205 13.72C106.512 13.72 107.492 13.4587 108.145 12.936C108.799 12.2827 109.517 11.2373 110.301 9.79999H112.457L114.025 52.332H110.497C104.617 39.1347 98.5412 29.0733 92.2692 22.148C86.1278 15.092 79.0718 11.564 71.1012 11.564ZM191.379 108.388V91.728C191.379 79.0533 190.661 69.8413 189.223 64.092C187.917 58.212 184.781 55.272 179.815 55.272C176.941 55.272 174.589 56.1213 172.759 57.82C171.061 59.388 169.819 62.0667 169.035 65.856C167.859 71.736 167.271 80.6867 167.271 92.708V107.996C167.271 122.239 167.663 130.797 168.447 133.672C169.362 136.547 170.277 138.899 171.191 140.728C172.629 143.864 175.438 145.432 179.619 145.432C184.715 145.432 188.047 142.492 189.615 136.612C190.791 132.431 191.379 123.023 191.379 108.388ZM179.227 148.96C162.894 148.96 150.546 144.779 142.183 136.416C133.821 128.053 129.639 116.097 129.639 100.548C129.639 84.868 134.082 72.8467 142.967 64.484C151.983 55.9907 164.593 51.744 180.795 51.744C196.998 51.744 209.085 55.664 217.055 63.504C225.026 71.2133 229.011 83.0387 229.011 98.98C229.011 132.3 212.417 148.96 179.227 148.96ZM234.493 53.704H281.729V71.736C286.041 58.408 295.515 51.744 310.149 51.744C324.915 51.744 333.865 58.8 337.001 72.912C341.575 58.8 351.179 51.744 365.813 51.744C385.021 51.744 394.625 62.6547 394.625 84.476V143.472H405.601V147H351.309V143.472H358.169V79.772C358.169 69.8413 357.32 64.0267 355.621 62.328C354.837 61.544 353.792 61.152 352.485 61.152C348.696 61.152 345.364 63.7 342.489 68.796C339.615 73.892 338.177 80.36 338.177 88.2V143.472H345.233V147H294.861V143.472H301.721V79.772C301.721 69.8413 300.872 64.0267 299.173 62.328C298.389 61.544 297.344 61.152 296.037 61.152C292.379 61.152 289.047 63.9613 286.041 69.58C283.167 75.068 281.729 81.6667 281.729 89.376V143.472H288.785V147H234.493V143.472H245.273V57.232H234.493V53.704ZM519.313 147H474.625L472.469 132.692C470.379 137.919 467.243 141.969 463.061 144.844C459.011 147.588 452.935 148.96 444.833 148.96C424.58 148.96 414.453 138.049 414.453 116.228V57.232H403.477V53.704H450.909V120.932C450.909 128.772 451.432 133.933 452.477 136.416C453.653 138.899 455.875 140.14 459.141 140.14C462.539 140.14 465.544 138.115 468.157 134.064C470.771 130.013 472.077 124.395 472.077 117.208V57.232H463.061V53.704H508.533V143.472H519.313V147ZM523.717 53.704H570.953V71.736C573.044 65.7253 576.245 60.8907 580.557 57.232C584.869 53.5733 591.403 51.744 600.157 51.744C620.411 51.744 630.537 62.6547 630.537 84.476V143.472H641.513V147H586.045V143.472H594.081V79.772C594.081 71.932 593.559 66.9013 592.513 64.68C591.468 62.328 589.573 61.152 586.829 61.152C582.648 61.152 578.924 63.896 575.657 69.384C572.521 74.872 570.953 81.536 570.953 89.376V143.472H579.381V147H523.717V143.472H534.497V57.232H523.717V53.704ZM672.915 40.18C665.989 40.18 661.024 38.416 658.019 34.888C655.144 31.36 653.707 26.9827 653.707 21.756C653.707 16.5293 655.275 12.2173 658.411 8.81999C661.677 5.42266 666.577 3.724 673.111 3.724C679.644 3.724 684.609 5.292 688.007 8.428C691.404 11.4333 693.103 15.8107 693.103 21.56C693.103 27.1787 691.469 31.6867 688.203 35.084C684.936 38.4813 679.84 40.18 672.915 40.18ZM643.319 53.704H691.339V143.472H702.315V147H644.103V143.472H654.883V57.232H643.319V53.704ZM761.19 55.272C755.44 55.272 751.324 58.408 748.842 64.68C746.359 70.952 745.118 81.34 745.118 95.844V106.036C745.118 118.972 746.555 128.249 749.43 133.868C752.304 139.487 757.596 142.296 765.306 142.296C773.015 142.296 779.156 139.683 783.73 134.456C788.303 129.229 791.243 123.284 792.55 116.62L796.078 117.012C793.595 128.249 789.022 136.351 782.358 141.316C775.563 146.412 766.22 148.96 754.33 148.96C739.172 148.96 727.543 144.909 719.442 136.808C711.34 128.576 707.29 116.62 707.29 100.94C707.29 85.1293 711.863 72.9773 721.01 64.484C730.287 55.9907 743.158 51.744 759.622 51.744C771.251 51.744 780.136 54.0307 786.278 58.604C792.419 63.0467 795.49 68.6653 795.49 75.46C795.49 82.2547 793.987 87.22 790.982 90.356C788.107 93.492 784.056 95.06 778.83 95.06C773.734 95.06 769.618 93.688 766.482 90.944C763.346 88.2 761.778 84.1493 761.778 78.792C761.778 76.44 762.104 74.088 762.758 71.736H769.226C770.14 69.1227 770.598 66.7707 770.598 64.68C770.598 58.408 767.462 55.272 761.19 55.272ZM848.096 100.94H853.78V85.848C853.78 73.4347 853.061 65.1373 851.624 60.956C850.317 56.644 847.704 54.488 843.784 54.488C841.432 54.488 839.276 55.1413 837.316 56.448C835.486 57.624 834.572 59.3227 834.572 61.544C834.572 63.6347 834.964 65.7907 835.748 68.012H840.648C841.693 70.756 842.216 74.088 842.216 78.008C842.216 81.7973 840.582 85.1293 837.316 88.004C834.049 90.748 829.933 92.12 824.968 92.12C813.73 92.12 808.112 86.6973 808.112 75.852C808.112 59.78 821.766 51.744 849.076 51.744C864.625 51.744 875.34 54.4227 881.22 59.78C887.23 65.0067 890.236 74.676 890.236 88.788V128.576C890.236 135.371 892.13 138.768 895.92 138.768C900.362 138.768 902.976 132.039 903.76 118.58L906.7 118.776C906.177 130.275 904.021 138.18 900.232 142.492C896.442 146.804 890.236 148.96 881.612 148.96C865.932 148.96 856.916 144.125 854.564 134.456C852.865 139.421 850.317 143.08 846.92 145.432C843.522 147.784 838.557 148.96 832.024 148.96C812.685 148.96 803.016 141.055 803.016 125.244C803.016 115.967 806.674 109.629 813.992 106.232C821.44 102.704 832.808 100.94 848.096 100.94ZM840.256 125.048C840.256 131.843 840.582 136.22 841.236 138.18C842.02 140.14 843.392 141.12 845.352 141.12C847.442 141.12 849.337 139.487 851.036 136.22C852.865 132.823 853.78 128.184 853.78 122.304V104.076H852.408C844.306 104.076 840.256 110.021 840.256 121.912V125.048ZM948.414 106.428C948.414 120.148 949.133 129.295 950.57 133.868C952.007 138.311 954.621 140.532 958.41 140.532C962.33 140.532 965.662 138.833 968.406 135.436C971.281 132.039 972.718 127.008 972.718 120.344V77.616C972.718 71.9973 971.607 67.228 969.386 63.308C967.165 59.388 963.898 57.428 959.586 57.428C955.274 57.428 952.334 60.3027 950.766 66.052C949.198 71.8013 948.414 81.8627 948.414 96.236V106.428ZM975.266 147L973.11 133.28C968.667 143.733 959.651 148.96 946.062 148.96C934.825 148.96 926.07 144.909 919.798 136.808C913.657 128.707 910.586 116.62 910.586 100.548C910.586 68.012 923.522 51.744 949.394 51.744C960.893 51.744 968.471 54.9453 972.13 61.348V3.52799H960.174V-1.16825e-05H1009.17V143.472H1018.78V147H975.266ZM1087.16 108.388V91.728C1087.16 79.0533 1086.44 69.8413 1085 64.092C1083.7 58.212 1080.56 55.272 1075.6 55.272C1072.72 55.272 1070.37 56.1213 1068.54 57.82C1066.84 59.388 1065.6 62.0667 1064.82 65.856C1063.64 71.736 1063.05 80.6867 1063.05 92.708V107.996C1063.05 122.239 1063.44 130.797 1064.23 133.672C1065.14 136.547 1066.06 138.899 1066.97 140.728C1068.41 143.864 1071.22 145.432 1075.4 145.432C1080.5 145.432 1083.83 142.492 1085.4 136.612C1086.57 132.431 1087.16 123.023 1087.16 108.388ZM1075.01 148.96C1058.68 148.96 1046.33 144.779 1037.96 136.416C1029.6 128.053 1025.42 116.097 1025.42 100.548C1025.42 84.868 1029.86 72.8467 1038.75 64.484C1047.76 55.9907 1060.37 51.744 1076.58 51.744C1092.78 51.744 1104.87 55.664 1112.84 63.504C1120.81 71.2133 1124.79 83.0387 1124.79 98.98C1124.79 132.3 1108.2 148.96 1075.01 148.96ZM1134.78 148.96V113.876H1137.13C1140.53 125.244 1145.11 133.215 1150.85 137.788C1156.6 142.361 1163.79 144.648 1172.41 144.648C1185.74 144.648 1192.41 140.401 1192.41 131.908C1192.41 128.249 1190.77 125.505 1187.51 123.676C1182.41 120.801 1175.88 118.58 1167.91 117.012C1159.02 114.66 1151.57 111.524 1145.56 107.604C1138.38 102.9 1134.78 95.452 1134.78 85.26C1134.78 75.068 1137.92 66.9667 1144.19 60.956C1150.46 54.8147 1158.83 51.744 1169.28 51.744C1175.68 51.744 1182.28 53.2467 1189.07 56.252C1191.56 57.2973 1193.45 57.82 1194.76 57.82C1196.07 57.82 1197.18 57.3627 1198.09 56.448C1199.01 55.5333 1200.12 53.8347 1201.42 51.352H1203.58V81.34H1201.23C1194.56 64.3533 1184.24 55.86 1170.26 55.86C1164.12 55.86 1159.54 56.9707 1156.54 59.192C1153.53 61.2827 1152.03 63.9613 1152.03 67.228C1152.03 69.188 1152.49 70.756 1153.4 71.932C1154.32 72.9773 1155.04 73.7613 1155.56 74.284C1156.08 74.8067 1156.93 75.3947 1158.11 76.048C1159.28 76.5707 1160.26 77.028 1161.05 77.42C1161.83 77.6813 1163.01 78.0733 1164.57 78.596C1166.27 79.1187 1167.51 79.4453 1168.3 79.576C1177.18 81.7973 1183.59 83.7573 1187.51 85.456C1191.43 87.024 1195.15 88.984 1198.68 91.336C1205.87 96.3013 1209.46 104.337 1209.46 115.444C1209.46 126.42 1206.19 134.783 1199.66 140.532C1193.13 146.151 1184.17 148.96 1172.81 148.96C1164.71 148.96 1156.87 147.065 1149.29 143.276C1147.72 142.231 1146.48 141.708 1145.56 141.708C1142.69 141.708 1139.88 144.125 1137.13 148.96H1134.78ZM231.645 132.8H289.269C309 132.8 323.7 135.675 333.369 141.424C343.038 147.043 347.873 157.169 347.873 171.804C347.873 188.007 341.993 199.179 330.233 205.32C319.257 210.939 303.904 213.748 284.173 213.748H282.605V266.276H307.105V270H231.645V266.276H244.385V136.524H231.645V132.8ZM282.605 136.524V210.024H286.721C294.561 210.024 299.984 207.345 302.989 201.988C305.994 196.631 307.497 187.941 307.497 175.92V166.512C307.497 155.405 306.06 147.631 303.185 143.188C300.441 138.745 295.345 136.524 287.897 136.524H282.605ZM400.502 271.96C383.646 271.96 370.971 267.648 362.478 259.024C354.115 250.269 349.934 238.183 349.934 222.764C349.934 207.215 354.638 195.324 364.046 187.092C373.585 178.86 385.671 174.744 400.306 174.744C429.967 174.744 444.21 189.64 443.034 219.432H387.762V227.076C387.762 239.881 389.395 249.551 392.662 256.084C395.929 262.617 401.613 265.884 409.714 265.884C424.871 265.884 434.802 257.783 439.506 241.58L443.034 242.168C440.551 251.576 436.043 258.893 429.51 264.12C423.107 269.347 413.438 271.96 400.502 271.96ZM387.958 215.512H408.146V205.908C408.146 195.324 407.493 188.137 406.186 184.348C405.01 180.428 402.527 178.468 398.738 178.468C395.079 178.468 392.335 180.559 390.506 184.74C388.807 188.791 387.958 195.847 387.958 205.908V215.512ZM452.611 271.96V236.876H454.963C458.36 248.244 462.933 256.215 468.683 260.788C474.432 265.361 481.619 267.648 490.243 267.648C503.571 267.648 510.235 263.401 510.235 254.908C510.235 251.249 508.601 248.505 505.335 246.676C500.239 243.801 493.705 241.58 485.735 240.012C476.849 237.66 469.401 234.524 463.391 230.604C456.204 225.9 452.611 218.452 452.611 208.26C452.611 198.068 455.747 189.967 462.019 183.956C468.291 177.815 476.653 174.744 487.107 174.744C493.509 174.744 500.108 176.247 506.903 179.252C509.385 180.297 511.28 180.82 512.587 180.82C513.893 180.82 515.004 180.363 515.919 179.448C516.833 178.533 517.944 176.835 519.251 174.352H521.407V204.34H519.055C512.391 187.353 502.068 178.86 488.087 178.86C481.945 178.86 477.372 179.971 474.367 182.192C471.361 184.283 469.859 186.961 469.859 190.228C469.859 192.188 470.316 193.756 471.231 194.932C472.145 195.977 472.864 196.761 473.387 197.284C473.909 197.807 474.759 198.395 475.935 199.048C477.111 199.571 478.091 200.028 478.875 200.42C479.659 200.681 480.835 201.073 482.403 201.596C484.101 202.119 485.343 202.445 486.127 202.576C495.012 204.797 501.415 206.757 505.335 208.456C509.255 210.024 512.979 211.984 516.507 214.336C523.693 219.301 527.287 227.337 527.287 238.444C527.287 249.42 524.02 257.783 517.487 263.532C510.953 269.151 502.003 271.96 490.635 271.96C482.533 271.96 474.693 270.065 467.115 266.276C465.547 265.231 464.305 264.708 463.391 264.708C460.516 264.708 457.707 267.125 454.963 271.96H452.611ZM537.595 271.96V236.876H539.947C543.344 248.244 547.918 256.215 553.667 260.788C559.416 265.361 566.603 267.648 575.227 267.648C588.555 267.648 595.219 263.401 595.219 254.908C595.219 251.249 593.586 248.505 590.319 246.676C585.223 243.801 578.69 241.58 570.719 240.012C561.834 237.66 554.386 234.524 548.375 230.604C541.188 225.9 537.595 218.452 537.595 208.26C537.595 198.068 540.731 189.967 547.003 183.956C553.275 177.815 561.638 174.744 572.091 174.744C578.494 174.744 585.092 176.247 591.887 179.252C594.37 180.297 596.264 180.82 597.571 180.82C598.878 180.82 599.988 180.363 600.903 179.448C601.818 178.533 602.928 176.835 604.235 174.352H606.391V204.34H604.039C597.375 187.353 587.052 178.86 573.071 178.86C566.93 178.86 562.356 179.971 559.351 182.192C556.346 184.283 554.843 186.961 554.843 190.228C554.843 192.188 555.3 193.756 556.215 194.932C557.13 195.977 557.848 196.761 558.371 197.284C558.894 197.807 559.743 198.395 560.919 199.048C562.095 199.571 563.075 200.028 563.859 200.42C564.643 200.681 565.819 201.073 567.387 201.596C569.086 202.119 570.327 202.445 571.111 202.576C579.996 204.797 586.399 206.757 590.319 208.456C594.239 210.024 597.963 211.984 601.491 214.336C608.678 219.301 612.271 227.337 612.271 238.444C612.271 249.42 609.004 257.783 602.471 263.532C595.938 269.151 586.987 271.96 575.619 271.96C567.518 271.96 559.678 270.065 552.099 266.276C550.531 265.231 549.29 264.708 548.375 264.708C545.5 264.708 542.691 267.125 539.947 271.96H537.595ZM681.379 231.388V214.728C681.379 202.053 680.661 192.841 679.223 187.092C677.917 181.212 674.781 178.272 669.815 178.272C666.941 178.272 664.589 179.121 662.759 180.82C661.061 182.388 659.819 185.067 659.035 188.856C657.859 194.736 657.271 203.687 657.271 215.708V230.996C657.271 245.239 657.663 253.797 658.447 256.672C659.362 259.547 660.277 261.899 661.191 263.728C662.629 266.864 665.438 268.432 669.619 268.432C674.715 268.432 678.047 265.492 679.615 259.612C680.791 255.431 681.379 246.023 681.379 231.388ZM669.227 271.96C652.894 271.96 640.546 267.779 632.183 259.416C623.821 251.053 619.639 239.097 619.639 223.548C619.639 207.868 624.082 195.847 632.967 187.484C641.983 178.991 654.593 174.744 670.795 174.744C686.998 174.744 699.085 178.664 707.055 186.504C715.026 194.213 719.011 206.039 719.011 221.98C719.011 255.3 702.417 271.96 669.227 271.96ZM771.533 223.94H777.217V208.848C777.217 196.435 776.499 188.137 775.061 183.956C773.755 179.644 771.141 177.488 767.221 177.488C764.869 177.488 762.713 178.141 760.753 179.448C758.924 180.624 758.009 182.323 758.009 184.544C758.009 186.635 758.401 188.791 759.185 191.012H764.085C765.131 193.756 765.653 197.088 765.653 201.008C765.653 204.797 764.02 208.129 760.753 211.004C757.487 213.748 753.371 215.12 748.405 215.12C737.168 215.12 731.549 209.697 731.549 198.852C731.549 182.78 745.204 174.744 772.513 174.744C788.063 174.744 798.777 177.423 804.657 182.78C810.668 188.007 813.673 197.676 813.673 211.788V251.576C813.673 258.371 815.568 261.768 819.357 261.768C823.8 261.768 826.413 255.039 827.197 241.58L830.137 241.776C829.615 253.275 827.459 261.18 823.669 265.492C819.88 269.804 813.673 271.96 805.049 271.96C789.369 271.96 780.353 267.125 778.001 257.456C776.303 262.421 773.755 266.08 770.357 268.432C766.96 270.784 761.995 271.96 755.461 271.96C736.123 271.96 726.453 264.055 726.453 248.244C726.453 238.967 730.112 232.629 737.429 229.232C744.877 225.704 756.245 223.94 771.533 223.94ZM763.693 248.048C763.693 254.843 764.02 259.22 764.673 261.18C765.457 263.14 766.829 264.12 768.789 264.12C770.88 264.12 772.775 262.487 774.473 259.22C776.303 255.823 777.217 251.184 777.217 245.304V227.076H775.845C767.744 227.076 763.693 233.021 763.693 244.912V248.048ZM860.876 163.18C853.95 163.18 848.985 161.416 845.98 157.888C843.105 154.36 841.668 149.983 841.668 144.756C841.668 139.529 843.236 135.217 846.372 131.82C849.638 128.423 854.538 126.724 861.072 126.724C867.605 126.724 872.57 128.292 875.968 131.428C879.365 134.433 881.064 138.811 881.064 144.56C881.064 150.179 879.43 154.687 876.164 158.084C872.897 161.481 867.801 163.18 860.876 163.18ZM831.28 176.704H879.3V266.472H890.276V270H832.064V266.472H842.844V180.232H831.28V176.704ZM898.779 271.96V236.876H901.131C904.528 248.244 909.101 256.215 914.851 260.788C920.6 265.361 927.787 267.648 936.411 267.648C949.739 267.648 956.403 263.401 956.403 254.908C956.403 251.249 954.769 248.505 951.503 246.676C946.407 243.801 939.873 241.58 931.903 240.012C923.017 237.66 915.569 234.524 909.559 230.604C902.372 225.9 898.779 218.452 898.779 208.26C898.779 198.068 901.915 189.967 908.187 183.956C914.459 177.815 922.821 174.744 933.275 174.744C939.677 174.744 946.276 176.247 953.071 179.252C955.553 180.297 957.448 180.82 958.755 180.82C960.061 180.82 961.172 180.363 962.087 179.448C963.001 178.533 964.112 176.835 965.419 174.352H967.575V204.34H965.223C958.559 187.353 948.236 178.86 934.255 178.86C928.113 178.86 923.54 179.971 920.535 182.192C917.529 184.283 916.027 186.961 916.027 190.228C916.027 192.188 916.484 193.756 917.399 194.932C918.313 195.977 919.032 196.761 919.555 197.284C920.077 197.807 920.927 198.395 922.103 199.048C923.279 199.571 924.259 200.028 925.043 200.42C925.827 200.681 927.003 201.073 928.571 201.596C930.269 202.119 931.511 202.445 932.295 202.576C941.18 204.797 947.583 206.757 951.503 208.456C955.423 210.024 959.147 211.984 962.675 214.336C969.861 219.301 973.455 227.337 973.455 238.444C973.455 249.42 970.188 257.783 963.655 263.532C957.121 269.151 948.171 271.96 936.803 271.96C928.701 271.96 920.861 270.065 913.283 266.276C911.715 265.231 910.473 264.708 909.559 264.708C906.684 264.708 903.875 267.125 901.131 271.96H898.779Z" fill="#18726E"/>
</svg>
